<svg width="25" height="44" viewBox="0 0 25 44" fill="none" xmlns="http://www.w3.org/2000/svg">
<path d="M14.7487 21.918L15.5214 21.0165L17.9358 18.5803C18.0943 18.4674 18.2264 18.3208 18.3227 18.1509C18.4191 17.981 18.4773 17.7919 18.4935 17.5968C18.5096 17.4017 18.4831 17.2055 18.416 17.0218C18.3489 16.8382 18.2427 16.6716 18.1049 16.5338C17.2598 15.6324 16.4147 16.5338 16.125 16.8262L12.6964 20.4075C12.4955 20.6008 12.3356 20.8333 12.2264 21.0909C12.1171 21.3484 12.0608 21.6256 12.0608 21.9058C12.0608 22.1859 12.1171 22.4631 12.2264 22.7207C12.3356 22.9782 12.4955 23.2107 12.6964 23.4041C14.1451 24.9146 15.4731 26.2545 16.0767 26.9854C16.3664 27.3021 17.2115 28.1792 18.0566 27.2777C18.9016 26.3763 18.0566 25.4993 17.7668 25.1825L15.5214 22.7463L14.7487 21.918Z" fill="#B0C15E"/>
<path d="M21.6779 34.3914C22.7403 35.5364 25.9515 38.9472 22.7403 42.3336C19.529 45.72 16.3177 42.4554 15.2554 41.2129C12.8409 38.4599 7.86702 33.3682 2.41028 27.5942C1.64846 26.8595 1.0421 25.9766 0.627842 24.9989C0.21358 24.0212 0 22.9689 0 21.9055C0 20.8422 0.21358 19.7899 0.627842 18.8121C1.0421 17.8344 1.64846 16.9515 2.41028 16.2168L15.2554 2.59811C16.3177 1.47743 19.529 -1.93335 22.7403 1.47743C25.9515 4.8882 22.7403 8.27461 22.0642 8.95676L19.4566 11.7341C19.3461 11.4457 19.1822 11.1811 18.9737 10.9545C17.2835 9.24912 15.69 10.9545 15.0139 11.661L8.18091 18.9698C7.78151 19.3605 7.46396 19.8281 7.2471 20.3449C7.03024 20.8618 6.9185 21.4173 6.9185 21.9786C6.9185 22.5399 7.03024 23.0954 7.2471 23.6123C7.46396 24.1291 7.78151 24.5967 8.18091 24.9874C11.0783 28.0815 13.6618 30.8344 15.0139 32.2962C16.366 33.758 17.863 34.4401 18.9737 32.9053L19.4807 32.1987L21.6779 34.3914Z" fill="#B0C15E"/>
</svg>
