<svg width="25" height="44" viewBox="0 0 25 44" fill="none" xmlns="http://www.w3.org/2000/svg">
<path d="M14.7486 21.918L15.5212 21.0165L17.9357 18.5803C18.0942 18.4674 18.2263 18.3208 18.3226 18.1509C18.419 17.981 18.4772 17.7919 18.4933 17.5968C18.5094 17.4017 18.483 17.2055 18.4159 17.0218C18.3487 16.8382 18.2425 16.6716 18.1047 16.5338C17.2597 15.6324 16.4146 16.5338 16.1249 16.8262L12.6963 20.4075C12.4954 20.6008 12.3355 20.8333 12.2263 21.0909C12.117 21.3484 12.0607 21.6256 12.0607 21.9058C12.0607 22.1859 12.117 22.4631 12.2263 22.7207C12.3355 22.9782 12.4954 23.2107 12.6963 23.4041C14.145 24.9146 15.4729 26.2545 16.0766 26.9854C16.3663 27.3021 17.2114 28.1792 18.0564 27.2777C18.9015 26.3763 18.0564 25.4993 17.7667 25.1826L15.5212 22.7463L14.7486 21.918Z" fill="#6E53AE"/>
<path d="M21.6779 34.3914C22.7403 35.5364 25.9515 38.9472 22.7403 42.3336C19.529 45.72 16.3177 42.4554 15.2554 41.2129C12.8409 38.4599 7.86702 33.3682 2.41028 27.5942C1.64846 26.8595 1.0421 25.9766 0.627842 24.9989C0.21358 24.0212 0 22.9689 0 21.9055C0 20.8422 0.21358 19.7899 0.627842 18.8121C1.0421 17.8344 1.64846 16.9515 2.41028 16.2168L15.2554 2.59811C16.3177 1.47743 19.529 -1.93335 22.7403 1.47743C25.9515 4.8882 22.7403 8.27461 22.0642 8.95676L19.4566 11.7341C19.3461 11.4457 19.1822 11.1811 18.9737 10.9545C17.2835 9.24912 15.69 10.9545 15.0139 11.661L8.18091 18.9698C7.78151 19.3605 7.46396 19.8281 7.2471 20.3449C7.03024 20.8618 6.9185 21.4173 6.9185 21.9786C6.9185 22.5399 7.03024 23.0954 7.2471 23.6123C7.46396 24.1291 7.78151 24.5967 8.18091 24.9874C11.0783 28.0815 13.6618 30.8344 15.0139 32.2962C16.366 33.758 17.863 34.4401 18.9737 32.9053L19.4807 32.1987L21.6779 34.3914Z" fill="#6E53AE"/>
</svg>
