<svg width="121" height="100" viewBox="0 0 121 100" fill="none" xmlns="http://www.w3.org/2000/svg">
<path d="M74.24 63.7852C80.3848 62.7095 88.2364 70.0693 84.5382 76.2403L81.5227 81.1091C78.5983 85.4819 75.1603 89.492 71.2814 93.0546C69.4066 95.0036 67.1545 96.5545 64.6611 97.6141C62.1676 98.6737 59.4843 99.22 56.773 99.22C54.0617 99.22 51.3784 98.6737 48.885 97.6141C46.3915 96.5545 44.1395 95.0036 42.2646 93.0546L7.50128 60.2751C4.59959 57.5576 -3.87788 49.292 4.59959 41.083C13.0771 32.8739 21.9528 41.083 23.7166 42.7814L26.4476 44.9327L26.9596 45.4422L48.068 65.5968C49.8827 67.5379 52.2497 68.8814 54.8525 69.448C57.4553 70.0145 60.1698 69.777 62.6333 68.7672C66.2548 66.7277 70.0655 65.0404 74.0124 63.7286L74.24 63.7852Z" fill="#C8DA6C"/>
<path d="M74.24 63.7852C80.3848 62.7095 88.2364 70.0693 84.5382 76.2403L81.5227 81.1091C78.5983 85.4819 75.1603 89.492 71.2814 93.0546C69.4066 95.0036 67.1545 96.5545 64.6611 97.6141C62.1676 98.6737 59.4843 99.22 56.773 99.22C54.0617 99.22 51.3784 98.6737 48.885 97.6141C46.3915 96.5545 44.1395 95.0036 42.2646 93.0546L7.50128 60.2751C4.59959 57.5576 -3.87788 49.292 4.59959 41.083C13.0771 32.8739 21.9528 41.083 23.7166 42.7814L26.4476 44.9327L26.9596 45.4422L48.068 65.5968C49.8827 67.5379 52.2497 68.8814 54.8525 69.448C57.4553 70.0145 60.1698 69.777 62.6333 68.7672C66.2548 66.7277 70.0655 65.0404 74.0124 63.7286L74.24 63.7852Z" fill="#C8DA6C"/>
<path d="M74.24 63.7852C80.3848 62.7095 88.2364 70.0693 84.5382 76.2403L81.5227 81.1091C78.5983 85.4819 75.1603 89.492 71.2814 93.0546C69.4066 95.0036 67.1545 96.5545 64.6611 97.6141C62.1676 98.6737 59.4843 99.22 56.773 99.22C54.0617 99.22 51.3784 98.6737 48.885 97.6141C46.3915 96.5545 44.1395 95.0036 42.2646 93.0546L7.50128 60.2751C4.59959 57.5576 -3.87788 49.292 4.59959 41.083C13.0771 32.8739 21.9528 41.083 23.7166 42.7814L26.4476 44.9327L26.9596 45.4422L48.068 65.5968C49.8827 67.5379 52.2497 68.8814 54.8525 69.448C57.4553 70.0145 60.1698 69.777 62.6333 68.7672C66.2548 66.7277 70.0655 65.0404 74.0124 63.7286L74.24 63.7852Z" fill="#C8DA6C"/>
<path d="M116.343 21.834C113.441 26.5896 108.491 35.8743 99.2742 50.4241C98.1932 52.1791 96.5432 55.576 95.4053 57.331C94.2674 59.0861 92.2191 59.0294 91.4795 58.1236L90.4553 56.595C88.8077 54.2566 86.4389 52.5163 83.708 51.6377C80.977 50.7591 78.0327 50.7902 75.3211 51.7262L69.6315 52.5754C69.2979 52.5811 68.9691 52.4954 68.6811 52.3278C68.3931 52.1602 68.157 51.917 67.9984 51.6249C67.8399 51.3327 67.7651 51.0029 67.7822 50.6713C67.7993 50.3397 67.9076 50.0192 68.0953 49.7447C73.5004 41.5923 87.895 20.0224 94.8932 10.1149C97.2259 6.94452 103.257 -3.47246 113.84 2.24556C124.422 7.96358 118.676 18.3806 116.343 21.834Z" fill="#C8DA6C"/>
<path d="M116.343 21.834C113.441 26.5896 108.491 35.8743 99.2742 50.4241C98.1932 52.1791 96.5432 55.576 95.4053 57.331C94.2674 59.0861 92.2191 59.0294 91.4795 58.1236L90.4553 56.595C88.8077 54.2566 86.4389 52.5163 83.708 51.6377C80.977 50.7591 78.0327 50.7902 75.3211 51.7262L69.6315 52.5754C69.2979 52.5811 68.9691 52.4954 68.6811 52.3278C68.3931 52.1602 68.157 51.917 67.9984 51.6249C67.8399 51.3327 67.7651 51.0029 67.7822 50.6713C67.7993 50.3397 67.9076 50.0192 68.0953 49.7447C73.5004 41.5923 87.895 20.0224 94.8932 10.1149C97.2259 6.94452 103.257 -3.47246 113.84 2.24556C124.422 7.96358 118.676 18.3806 116.343 21.834Z" fill="#C8DA6C"/>
<path d="M116.343 21.834C113.441 26.5896 108.491 35.8743 99.2742 50.4241C98.1932 52.1791 96.5432 55.576 95.4053 57.331C94.2674 59.0861 92.2191 59.0294 91.4795 58.1236L90.4553 56.595C88.8077 54.2566 86.4389 52.5163 83.708 51.6377C80.977 50.7591 78.0327 50.7902 75.3211 51.7262L69.6315 52.5754C69.2979 52.5811 68.9691 52.4954 68.6811 52.3278C68.3931 52.1602 68.157 51.917 67.9984 51.6249C67.8399 51.3327 67.7651 51.0029 67.7822 50.6713C67.7993 50.3397 67.9076 50.0192 68.0953 49.7447C73.5004 41.5923 87.895 20.0224 94.8932 10.1149C97.2259 6.94452 103.257 -3.47246 113.84 2.24556C124.422 7.96358 118.676 18.3806 116.343 21.834Z" fill="#C8DA6C"/>
</svg>
