<svg width="33" height="33" viewBox="0 0 33 33" fill="none" xmlns="http://www.w3.org/2000/svg">
<path d="M31.1373 31.1374C30.7446 31.5305 30.2782 31.8424 29.7649 32.0552C29.2515 32.268 28.7012 32.3776 28.1455 32.3776C27.5898 32.3776 27.0395 32.268 26.5262 32.0552C26.0128 31.8424 25.5464 31.5305 25.1537 31.1374L18.1764 24.1811L24.1811 18.1764L31.1373 25.1537C31.5305 25.5465 31.8424 26.0129 32.0552 26.5262C32.268 27.0396 32.3775 27.5898 32.3775 28.1456C32.3775 28.7013 32.268 29.2515 32.0552 29.7649C31.8424 30.2782 31.5305 30.7446 31.1373 31.1374Z" fill="#6E53AE"/>
<path d="M12.4251 10.3108L8.36558 14.3492L1.24022 7.22383C0.847052 6.8311 0.535147 6.36472 0.322341 5.85137C0.109535 5.33801 0 4.78774 0 4.23203C0 3.67631 0.109535 3.12604 0.322341 2.61269C0.535147 2.09933 0.847052 1.63295 1.24022 1.24022C1.63295 0.847052 2.09933 0.535147 2.61269 0.322341C3.12604 0.109535 3.67631 0 4.23203 0C4.78774 0 5.33801 0.109535 5.85137 0.322341C6.36472 0.535147 6.8311 0.847052 7.22383 1.24022L11.6428 5.72264C11.14 6.43544 10.9401 7.31837 11.0867 8.17823C11.2333 9.03809 11.7146 9.80487 12.4251 10.3108Z" fill="#6E53AE"/>
<path d="M31.1371 7.22383L7.22383 31.1371C6.8311 31.5303 6.36472 31.8422 5.85137 32.055C5.33801 32.2678 4.78774 32.3773 4.23203 32.3773C3.67631 32.3773 3.12604 32.2678 2.61269 32.055C2.09933 31.8422 1.63295 31.5303 1.24022 31.1371C0.847052 30.7444 0.535147 30.278 0.322341 29.7647C0.109535 29.2513 0 28.701 0 28.1453C0 27.5896 0.109535 27.0393 0.322341 26.526C0.535147 26.0126 0.847052 25.5463 1.24022 25.1535L16.1887 10.2051L25.1535 1.24022C25.5463 0.847052 26.0126 0.535147 26.526 0.322341C27.0393 0.109535 27.5896 0 28.1453 0C28.701 0 29.2513 0.109535 29.7647 0.322341C30.278 0.535147 30.7444 0.847052 31.1371 1.24022C31.5303 1.63295 31.8422 2.09933 32.055 2.61269C32.2678 3.12604 32.3773 3.67631 32.3773 4.23203C32.3773 4.78774 32.2678 5.33801 32.055 5.85137C31.8422 6.36472 31.5303 6.8311 31.1371 7.22383Z" fill="#6E53AE"/>
</svg>
