<svg width="87" height="87" viewBox="0 0 87 87" fill="none" xmlns="http://www.w3.org/2000/svg">
<path d="M83.0688 83.0689C82.021 84.1178 80.7768 84.9499 79.4073 85.5176C78.0377 86.0854 76.5697 86.3776 75.0872 86.3776C73.6046 86.3776 72.1366 86.0854 70.7671 85.5176C69.3975 84.9499 68.1533 84.1178 67.1056 83.0689L48.4912 64.511L64.5108 48.4913L83.0688 67.1057C84.1177 68.1534 84.9498 69.3976 85.5175 70.7672C86.0852 72.1367 86.3775 73.6047 86.3775 75.0873C86.3775 76.5698 86.0852 78.0379 85.5175 79.4074C84.9498 80.7769 84.1177 82.0212 83.0688 83.0689V83.0689Z" fill="#9C8BC9"/>
<path d="M33.1481 27.5073L22.3179 38.2811L3.30869 19.2719C2.25978 18.2242 1.42768 16.98 0.859949 15.6104C0.292219 14.2409 0 12.7728 0 11.2903C0 9.80774 0.292219 8.33973 0.859949 6.97019C1.42768 5.60064 2.25978 4.35643 3.30869 3.30869C4.35643 2.25978 5.60064 1.42768 6.97019 0.859948C8.33973 0.292219 9.80774 0 11.2903 0C12.7729 0 14.2409 0.292219 15.6104 0.859948C16.98 1.42768 18.2242 2.25978 19.2719 3.30869L31.061 15.267C29.7197 17.1686 29.1862 19.5241 29.5773 21.8181C29.9685 24.112 31.2524 26.1577 33.1481 27.5073V27.5073Z" fill="#9C8BC9"/>
<path d="M83.0684 19.2719L19.2719 83.0684C18.2242 84.1173 16.98 84.9494 15.6104 85.5171C14.2409 86.0848 12.7729 86.377 11.2903 86.377C9.80774 86.377 8.33973 86.0848 6.97019 85.5171C5.60064 84.9494 4.35643 84.1173 3.30869 83.0684C2.25978 82.0206 1.42768 80.7764 0.859949 79.4069C0.292219 78.0373 0 76.5693 0 75.0868C0 73.6042 0.292219 72.1362 0.859949 70.7666C1.42768 69.3971 2.25978 68.1529 3.30869 67.1051L43.1885 27.2253L67.1051 3.30869C68.1529 2.25978 69.3971 1.42768 70.7666 0.859949C72.1362 0.292219 73.6042 0 75.0868 0C76.5693 0 78.0373 0.292219 79.4069 0.859949C80.7764 1.42768 82.0206 2.25978 83.0684 3.30869C84.1173 4.35643 84.9494 5.60064 85.5171 6.97019C86.0848 8.33973 86.377 9.80774 86.377 11.2903C86.377 12.7729 86.0848 14.2409 85.5171 15.6104C84.9494 16.98 84.1173 18.2242 83.0684 19.2719Z" fill="#9C8BC9"/>
</svg>
