<svg width="39" height="39" viewBox="0 0 39 39" fill="none" xmlns="http://www.w3.org/2000/svg">
<path d="M10.1091 16.001H9.16403C8.43416 15.9814 7.72131 16.2439 7.15068 16.7424C6.58004 17.2409 6.18811 17.9436 6.04373 18.727C5.96873 19.2026 5.99041 19.6904 6.10721 20.1558C6.22402 20.6211 6.43309 21.0526 6.71955 21.4195C7.00601 21.7864 7.36281 22.0796 7.76457 22.2784C8.16633 22.4772 8.60317 22.5766 9.04402 22.5696H29.836C30.5659 22.5892 31.2787 22.3267 31.8494 21.8282C32.42 21.3297 32.8119 20.627 32.9563 19.8436C33.0306 19.3722 33.0099 18.8886 32.8957 18.4268C32.7814 17.965 32.5764 17.5361 32.2949 17.1701C32.0134 16.8041 31.6623 16.5099 31.2661 16.3079C30.8699 16.106 30.4381 16.0012 30.001 16.001H18.3149C17.5948 16.001 17.0248 17.052 16.5147 17.6432C15.8372 18.262 14.9736 18.5828 14.0919 18.5434C13.2102 18.5039 12.3734 18.107 11.7443 17.4297C11.2492 16.9206 10.7392 16.001 10.1091 16.001Z" fill="#B91C1C" stroke="#B91C1C" stroke-linecap="round" stroke-linejoin="round"/>
<circle cx="19.5" cy="19.5" r="17" stroke="#B91C1C" stroke-width="5"/>
</svg>
