<svg width="152" height="212" viewBox="0 0 152 212" fill="none" xmlns="http://www.w3.org/2000/svg">
<path fill-rule="evenodd" clip-rule="evenodd" d="M151.083 28.0583V170.508C151.083 193.171 132.738 211.517 110.075 211.517H41.0083C18.3458 211.517 0 193.171 0 170.508V70.1458C0 64.75 5.39583 59.3542 10.7917 59.3542C16.1875 59.3542 21.5833 64.75 21.5833 70.1458V158.638C21.5833 164.033 25.9 168.35 31.2958 168.35H32.375C37.7708 168.35 42.0875 164.033 42.0875 158.638V71.225C42.0875 64.75 47.4833 59.3542 53.9583 59.3542C60.4333 59.3542 65.8292 64.75 65.8292 71.225V134.896C65.8292 140.292 70.1458 144.608 75.5417 144.608C80.9375 144.608 85.2542 140.292 85.2542 134.896V71.225C85.2542 64.75 90.65 59.3542 97.125 59.3542C103.6 59.3542 108.996 64.75 108.996 71.225V116.55C108.996 121.946 113.313 126.263 118.708 126.263H119.788C125.183 126.263 129.5 121.946 129.5 116.55V48.5625C129.5 43.1667 125.183 38.85 119.788 38.85H9.7125C4.31667 38.85 0 33.4542 0 28.0583C0 22.6625 4.31667 17.2667 9.7125 17.2667H43.1667V10.7917C43.1667 5.39583 46.4042 0 51.8 0H100.363C104.679 0 108.996 5.39583 108.996 10.7917L107.917 17.2667H141.371C146.767 17.2667 151.083 22.6625 151.083 28.0583Z" fill="white"/>
</svg>
