<svg width="20" height="21" viewBox="0 0 20 21" fill="none" xmlns="http://www.w3.org/2000/svg">
<path d="M16.5428 7.14007C16.6451 7.44707 16.7473 7.65174 16.8496 7.95875C16.9518 8.16342 17.1563 8.36808 17.3608 8.47042H17.5654C18.3834 8.57275 18.8947 9.28909 18.8947 10.0054C18.8947 10.7218 18.2811 11.4381 17.5654 11.5405H17.3608C17.0541 11.5405 16.8496 11.7451 16.8496 12.0521C16.7473 12.4615 16.5428 12.9731 16.3383 13.3825C16.236 13.5871 16.236 13.8941 16.3383 14.0988L16.4405 14.3035C16.9518 14.9175 16.8496 15.8385 16.236 16.3502C15.9293 16.6572 15.5202 16.8618 15.1112 16.8618C14.8045 16.8618 14.4977 16.7595 14.1909 16.5548L13.9864 16.4525C13.7819 16.2478 13.4751 16.2478 13.2706 16.4525C12.8616 16.6572 12.4526 16.8618 11.9413 16.9642C11.7368 17.0665 11.5323 17.2712 11.43 17.4759V17.6805C11.3278 18.4992 10.612 19.0109 9.89621 19.0109C9.18042 19.0109 8.46463 18.3969 8.36238 17.6805V17.4759C8.36238 17.1688 8.15787 16.9642 7.8511 16.9642C7.44208 16.8618 6.93081 16.6572 6.52178 16.4525C6.31727 16.3502 6.01051 16.3502 5.806 16.4525L5.60149 16.5548C4.98796 16.9642 4.06766 16.9642 3.55638 16.3502C3.04511 15.8385 2.94285 14.9175 3.35187 14.3035L3.55638 14.0988C3.76089 13.8941 3.76089 13.5871 3.55638 13.3825C3.35187 12.9731 3.14736 12.5638 3.04511 12.0521C2.94285 11.8475 2.73834 11.6428 2.53383 11.5405H2.32932C1.51128 11.4381 1 10.7218 1 10.0054C1 9.28909 1.61353 8.57275 2.32932 8.47042H2.53383C2.84059 8.47042 3.04511 8.26575 3.04511 7.95875C3.14736 7.54941 3.35187 7.03774 3.55638 6.6284C3.65864 6.32139 3.65864 6.11673 3.55638 5.91206L3.35187 5.70739C2.94285 5.09338 2.94285 4.17237 3.55638 3.6607C4.06766 3.14902 4.98796 3.04669 5.60149 3.45603L5.806 3.55836C6.01051 3.76303 6.31727 3.76303 6.52178 3.55836C6.93081 3.35369 7.33983 3.14902 7.8511 3.04669C8.05561 2.94436 8.26012 2.73969 8.36238 2.53502V2.33035C8.46463 1.51167 9.18042 1 9.89621 1C10.612 1 11.3278 1.61401 11.43 2.33035V2.53502L11.1233 6.73073C11.9413 7.03774 12.6571 7.75408 12.9639 8.47042C13.1684 8.87976 13.2706 9.39143 13.2706 9.9031C13.2706 11.8475 11.7368 13.3825 9.79395 13.3825C7.8511 13.3825 6.41953 11.9498 6.41953 10.0054C6.41953 8.98209 6.82855 8.16342 7.44208 7.54941" stroke="#A792DF" stroke-width="2" stroke-miterlimit="10" stroke-linecap="round" stroke-linejoin="round"/>
</svg>
