<svg width="30" height="31" viewBox="0 0 30 31" fill="none" xmlns="http://www.w3.org/2000/svg">
<path d="M29.9597 15.5769C29.7987 16.3755 29.3605 17.0914 28.7225 17.5981C28.0846 18.1048 27.2881 18.3696 26.4737 18.3456H18.3343V26.4851C18.3583 27.2994 18.0935 28.0959 17.5868 28.7339C17.0801 29.3718 16.3642 29.81 15.5656 29.971C15.0825 30.0544 14.587 30.0303 14.1143 29.9004C13.6417 29.7706 13.2034 29.5381 12.8308 29.2196C12.4581 28.9011 12.1603 28.5044 11.9584 28.0577C11.7565 27.611 11.6555 27.1253 11.6627 26.6352V18.2956H3.45652C2.70281 18.3262 1.96099 18.1004 1.35212 17.6551C0.743256 17.2098 0.303283 16.5713 0.104007 15.8438C-0.114283 14.9901 0.01401 14.0848 0.460877 13.3255C0.907745 12.5661 1.63689 12.0144 2.48913 11.7907V11.7907C2.48913 12.5427 2.78786 13.264 3.31961 13.7957C3.85136 14.3275 4.57257 14.6262 5.32458 14.6262H10.1449C11.3083 14.6262 12.424 14.164 13.2467 13.3414C14.0693 12.5187 14.5315 11.403 14.5315 10.2396V6.90375C14.5359 6.53297 14.4667 6.16501 14.3278 5.82118C14.189 5.47736 13.9833 5.16451 13.7226 4.90077C13.462 4.63702 13.1516 4.42763 12.8095 4.28473C12.4673 4.14183 12.1002 4.06827 11.7294 4.06829V3.53456C11.7024 2.72957 11.9578 1.9405 12.4512 1.3039C12.9446 0.667308 13.6451 0.223262 14.4314 0.0486174C14.9145 -0.0347685 15.4099 -0.0106679 15.8826 0.119205C16.3553 0.249077 16.7936 0.481529 17.1662 0.800022C17.5388 1.11851 17.8367 1.51522 18.0386 1.96191C18.2405 2.4086 18.3415 2.8943 18.3343 3.38445V11.724H26.6739C27.1549 11.7254 27.6298 11.8308 28.0663 12.033C28.5027 12.2351 28.8902 12.5293 29.2023 12.8952C29.5144 13.2612 29.7437 13.6903 29.8744 14.1532C30.0052 14.6161 30.0342 15.1017 29.9597 15.5769V15.5769Z" fill="#E5E5E5"/>
<path d="M11.6293 8.75458V9.57186C11.7118 10.3115 11.5285 11.0565 11.1122 11.6734V11.6734C10.499 12.0824 9.75796 12.2544 9.02732 12.1571H7.64295C7.53425 12.1589 7.4265 12.1366 7.32749 12.0917C7.22848 12.0467 7.14069 11.9804 7.07047 11.8974C7.00024 11.8144 6.94933 11.7168 6.92142 11.6118C6.89351 11.5067 6.88929 11.3967 6.90907 11.2898C6.94084 11.1058 7.03726 10.9391 7.18098 10.8199C7.32469 10.7006 7.50626 10.6366 7.69299 10.6393H8.77714C8.95157 10.6415 9.12471 10.6091 9.2865 10.5439C9.4483 10.4786 9.59553 10.3819 9.71966 10.2593C9.84379 10.1368 9.94234 9.99076 10.0096 9.8298C10.0769 9.66884 10.1115 9.49612 10.1115 9.32167V8.80462C10.1066 8.62056 10.1653 8.44043 10.2777 8.2946C10.3901 8.14877 10.5494 8.04615 10.7286 8.00402C10.8381 7.98746 10.9499 7.99431 11.0566 8.02412C11.1633 8.05392 11.2625 8.10599 11.3476 8.17691C11.4327 8.24783 11.5018 8.33598 11.5503 8.43555C11.5989 8.53512 11.6258 8.64386 11.6293 8.75458V8.75458Z" fill="#E5E5E5"/>
</svg>
