<svg width="26" height="27" viewBox="0 0 26 27" fill="none" xmlns="http://www.w3.org/2000/svg">
<path d="M25.9651 13.5C25.8255 14.1921 25.4457 14.8126 24.8929 15.2517C24.34 15.6908 23.6496 15.9203 22.9439 15.8996H15.8897V22.9537C15.9105 23.6595 15.681 24.3498 15.2419 24.9027C14.8028 25.4556 14.1823 25.8353 13.4902 25.9749C13.0715 26.0471 12.6421 26.0263 12.2324 25.9137C11.8228 25.8011 11.443 25.5997 11.12 25.3237C10.7971 25.0476 10.5389 24.7038 10.3639 24.3167C10.189 23.9296 10.1014 23.5086 10.1076 23.0838V15.8562H2.99565C2.34244 15.8827 1.69953 15.687 1.17184 15.3011C0.644155 14.9152 0.262846 14.3618 0.0901392 13.7313C-0.0990454 12.9915 0.012142 12.2069 0.399427 11.5487C0.786712 10.8906 1.41864 10.4125 2.15724 10.2186C2.15724 10.8704 2.41615 11.4954 2.877 11.9563C3.33785 12.4171 3.96289 12.676 4.61464 12.676H8.79221C9.80049 12.676 10.7675 12.2755 11.4804 11.5625C12.1934 10.8496 12.5939 9.88258 12.5939 8.8743V5.98325C12.5978 5.66191 12.5378 5.34301 12.4174 5.04503C12.2971 4.74704 12.1188 4.47591 11.893 4.24733C11.6671 4.01875 11.3981 3.83728 11.1015 3.71344C10.805 3.58959 10.4868 3.52583 10.1655 3.52585V3.06328C10.1421 2.36563 10.3634 1.68176 10.791 1.13005C11.2187 0.578334 11.8258 0.193494 12.5072 0.0421351C12.9259 -0.0301327 13.3553 -0.00924549 13.7649 0.103311C14.1746 0.215867 14.5544 0.417325 14.8774 0.693352C15.2003 0.969379 15.4585 1.31319 15.6335 1.70032C15.8084 2.08745 15.8959 2.50839 15.8897 2.93319V10.1608H23.1174C23.5342 10.162 23.9459 10.2534 24.3241 10.4286C24.7023 10.6038 25.0382 10.8587 25.3087 11.1759C25.5792 11.4931 25.7779 11.865 25.8912 12.2661C26.0045 12.6673 26.0297 13.0882 25.9651 13.5Z" fill="#B9C08B"/>
<path d="M10.0797 7.58799V8.29637C10.1512 8.9375 9.99239 9.58316 9.63155 10.1179C9.10007 10.4724 8.45775 10.6214 7.82447 10.5372H6.62456C6.53034 10.5387 6.43694 10.5194 6.35113 10.4804C6.26532 10.4415 6.18922 10.384 6.12835 10.312C6.06748 10.2401 6.02336 10.1555 5.99916 10.0645C5.97497 9.97339 5.97132 9.87807 5.98846 9.78541C6.016 9.6259 6.09957 9.48147 6.22414 9.3781C6.3487 9.27474 6.50608 9.21924 6.66793 9.2216H7.60761C7.75881 9.22351 7.90887 9.19539 8.04911 9.13885C8.18935 9.08231 8.31696 8.99849 8.42455 8.89225C8.53214 8.786 8.61756 8.65945 8.67585 8.51994C8.73415 8.38042 8.76416 8.23072 8.76415 8.07952V7.63136C8.75992 7.47182 8.8108 7.3157 8.90824 7.18931C9.00567 7.06291 9.14369 6.97396 9.29905 6.93744C9.39399 6.92309 9.49089 6.92903 9.58337 6.95486C9.67585 6.98069 9.7618 7.02583 9.83556 7.0873C9.90933 7.14876 9.96922 7.22517 10.0113 7.31147C10.0534 7.39778 10.0767 7.49202 10.0797 7.58799Z" fill="#B9C08B"/>
</svg>
