<svg width="29" height="9" viewBox="0 0 29 9" fill="none" xmlns="http://www.w3.org/2000/svg">
<path d="M5.10912 1.00103H4.16403C3.43416 0.981383 2.72131 1.24387 2.15068 1.74238C1.58004 2.2409 1.18811 2.94357 1.04373 3.72697C0.968729 4.20256 0.990405 4.6904 1.10721 5.15577C1.22402 5.62115 1.43309 6.05262 1.71955 6.4195C2.00601 6.78638 2.36281 7.07964 2.76457 7.27841C3.16633 7.47719 3.60317 7.5766 4.04402 7.56956H24.836C25.5659 7.58921 26.2787 7.32672 26.8494 6.82821C27.42 6.32969 27.8119 5.62702 27.9563 4.84362C28.0306 4.37215 28.0099 3.88861 27.8957 3.42681C27.7814 2.96501 27.5764 2.53611 27.2949 2.17011C27.0134 1.80411 26.6623 1.50985 26.2661 1.30792C25.8699 1.10598 25.4381 1.00124 25.001 1.00103H13.3149C12.5948 1.00103 12.0248 2.05199 11.5147 2.64316C10.8372 3.26196 9.97359 3.58282 9.0919 3.54337C8.21022 3.50391 7.37345 3.10696 6.74428 2.42968C6.24923 1.92062 5.73918 1.00103 5.10912 1.00103Z" fill="#B9C08B" stroke="#B9C08B" stroke-linecap="round" stroke-linejoin="round"/>
</svg>
