<svg width="65" height="46" viewBox="0 0 65 46" fill="none" xmlns="http://www.w3.org/2000/svg">
<path d="M49.8036 22.8317H58.8051C59.357 22.8278 59.9042 22.9333 60.4149 23.1419C60.9256 23.3505 61.3896 23.6581 61.7799 24.0468C62.1702 24.4355 62.479 24.8976 62.6885 25.4062C62.8979 25.9149 63.0038 26.4599 62.9999 27.0096V39.5144C62.9999 40.0617 62.8912 40.6036 62.68 41.1088C62.4689 41.6141 62.1594 42.0728 61.7695 42.4584C61.3796 42.8441 60.9169 43.1491 60.4082 43.3558C59.8994 43.5626 59.3546 43.6671 58.8051 43.6633H6.1657C5.06089 43.6633 4.00133 43.2262 3.22011 42.4481C2.43889 41.67 2 40.6147 2 39.5144V14.4758C2 13.3755 2.43889 12.3202 3.22011 11.5421C4.00133 10.7641 5.06089 10.3269 6.1657 10.3269H13.0988C13.6508 10.3308 14.198 10.2254 14.7087 10.0168C15.2194 9.80818 15.6834 9.50058 16.0737 9.11185C16.464 8.72312 16.7728 8.26102 16.9822 7.75239C17.1917 7.24376 17.2975 6.69874 17.2937 6.14901C17.2937 5.04865 17.7326 3.99336 18.5138 3.21529C19.295 2.43722 20.3546 2.0001 21.4594 2.0001H43.6279C44.1774 1.99627 44.7222 2.10076 45.231 2.30755C45.7398 2.51434 46.2025 2.81934 46.5924 3.20498C46.9823 3.59063 47.2917 4.04929 47.5029 4.55456C47.7141 5.05983 47.8228 5.60172 47.8228 6.14901V9.92075C47.783 11.2354 48.2116 12.5217 49.0327 13.5519C49.8537 14.582 51.0143 15.2896 52.3089 15.5493C53.0654 15.6667 53.8385 15.6194 54.5749 15.4108C55.3113 15.2022 55.9936 14.8372 56.5749 14.341C57.1562 13.8447 57.6227 13.229 57.9423 12.536C58.2619 11.8431 58.4271 11.0895 58.4264 10.3269" stroke="#957ED8" stroke-width="3" stroke-linecap="round" stroke-linejoin="round"/>
<path d="M45.7253 19.5242C45.8627 20.4854 46.3588 21.3597 47.1147 21.9728C47.8706 22.5858 48.8308 22.8925 49.8037 22.8318" stroke="#957ED8" stroke-width="3" stroke-linecap="round" stroke-linejoin="round"/>
<path d="M42.1421 32.4641C40.8865 33.7091 39.3956 34.6937 37.7555 35.361C36.1154 36.0284 34.3588 36.3652 32.5872 36.3519C30.0452 36.3511 27.5545 35.6394 25.3988 34.2979C23.243 32.9564 21.5087 31.039 20.3934 28.764C19.278 26.4889 18.8264 23.9478 19.09 21.4297C19.3536 18.9116 20.3218 16.5178 21.8843 14.5209C23.4469 12.524 25.541 11.0041 27.9282 10.1343C30.3155 9.26459 32.9 9.07989 35.3875 9.60128C37.8749 10.1227 40.1655 11.3292 41.9982 13.0835C43.831 14.8378 45.1324 17.0694 45.7543 19.5242" stroke="#957ED8" stroke-width="3" stroke-linecap="round" stroke-linejoin="round"/>
<path d="M53.1246 5.04657C54.1732 5.04657 55.1982 5.35626 56.0701 5.93648C56.942 6.5167 57.6215 7.3414 58.0228 8.30627C58.4241 9.27114 58.5291 10.3329 58.3245 11.3572C58.1199 12.3815 57.615 13.3223 56.8735 14.0608C56.132 14.7993 55.1873 15.3022 54.1589 15.506C53.1304 15.7097 52.0644 15.6051 51.0956 15.2055C50.1269 14.8058 49.2988 14.129 48.7163 13.2607C48.1337 12.3923 47.8228 11.3714 47.8228 10.327" stroke="#957ED8" stroke-width="3" stroke-linecap="round" stroke-linejoin="round"/>
</svg>
