<svg width="16" height="16" viewBox="0 0 16 16" fill="none" xmlns="http://www.w3.org/2000/svg">
<path d="M14.7616 4.92035C15.0795 4.70844 15.0795 4.28461 14.7616 3.96674L11.5829 0.999922L1.52979 10.6351C1.21192 10.953 1 11.3768 1 11.8007V14.0258C1 14.2377 1.10596 14.3436 1.21192 14.4496C1.31787 14.5555 1.52979 14.6615 1.63575 14.6615H3.86085C4.28468 14.6615 4.81447 14.4496 5.13234 14.1317L14.7616 4.92035Z" stroke="#A792DF" stroke-width="2" stroke-miterlimit="10" stroke-linecap="round" stroke-linejoin="round"/>
<path d="M14.7616 4.92035C15.0795 4.70844 15.0795 4.28461 14.7616 3.96674L11.5829 0.999922L1.52979 10.6351C1.21192 10.953 1 11.3768 1 11.8007V14.0258C1 14.2377 1.10596 14.3436 1.21192 14.4496C1.31787 14.5555 1.52979 14.6615 1.63575 14.6615H3.86085C4.28468 14.6615 4.81447 14.4496 5.13234 14.1317L14.7616 4.92035Z" stroke="#A792DF" stroke-width="2" stroke-miterlimit="10" stroke-linecap="round" stroke-linejoin="round"/>
<path d="M14.7616 4.92035C15.0795 4.70844 15.0795 4.28461 14.7616 3.96674L11.5829 0.999922L1.52979 10.6351C1.21192 10.953 1 11.3768 1 11.8007V14.0258C1 14.2377 1.10596 14.3436 1.21192 14.4496C1.31787 14.5555 1.52979 14.6615 1.63575 14.6615H3.86085C4.28468 14.6615 4.81447 14.4496 5.13234 14.1317L14.7616 4.92035Z" stroke="#A792DF" stroke-width="2" stroke-miterlimit="10" stroke-linecap="round" stroke-linejoin="round"/>
<path d="M3.86084 14.6616H14.8804" stroke="#A792DF" stroke-width="2" stroke-miterlimit="10" stroke-linecap="round" stroke-linejoin="round"/>
</svg>
