<svg width="103" height="103" viewBox="0 0 103 103" fill="none" xmlns="http://www.w3.org/2000/svg">
<path d="M102.102 53.0857C101.553 55.8073 100.06 58.2472 97.8857 59.9739C95.7116 61.7007 92.997 62.6031 90.2218 62.5215H62.4829V90.2604C62.5645 93.0356 61.6621 95.7502 59.9353 97.9243C58.2086 100.098 55.7687 101.592 53.0471 102.14C51.4008 102.425 49.7122 102.342 48.1013 101.9C46.4904 101.457 44.9969 100.665 43.7269 99.5797C42.457 98.4942 41.4419 97.1423 40.7538 95.62C40.0658 94.0977 39.7217 92.4424 39.746 90.772V62.3509H11.7797C9.2111 62.4551 6.68302 61.6857 4.60801 60.1681C2.533 58.6506 1.03358 56.4746 0.354452 53.9952C-0.389474 51.086 0.0477458 48.0007 1.57066 45.4129C3.09357 42.825 5.57848 40.9447 8.48287 40.1825V40.1825C8.48287 42.7454 9.50095 45.2032 11.3131 47.0154C13.1253 48.8276 15.5832 49.8457 18.146 49.8457H34.5734C38.5382 49.8457 42.3407 48.2707 45.1443 45.4671C47.9478 42.6635 49.5229 38.8611 49.5229 34.8962V23.5278C49.5379 22.2642 49.302 21.0102 48.8289 19.8384C48.3557 18.6667 47.6547 17.6005 46.7664 16.7017C45.8782 15.8029 44.8203 15.0893 43.6543 14.6023C42.4882 14.1153 41.2371 13.8645 39.9734 13.8646V12.0457C39.8816 9.30231 40.7518 6.61316 42.4334 4.44366C44.115 2.27417 46.5022 0.760871 49.1818 0.165687C50.8281 -0.11849 52.5167 -0.0363558 54.1276 0.406246C55.7385 0.848848 57.232 1.64104 58.502 2.72645C59.7719 3.81187 60.787 5.16383 61.4751 6.68614C62.1631 8.20845 62.5072 9.8637 62.4829 11.5341V39.9552H90.9039C92.5431 39.9599 94.1618 40.3191 95.6491 41.0081C97.1365 41.697 98.4572 42.6995 99.5208 43.9467C100.584 45.1939 101.366 46.6563 101.811 48.2338C102.257 49.8112 102.356 51.4663 102.102 53.0857V53.0857Z" fill="#C8DA6C"/>
<path d="M39.6325 29.8376V32.6229C39.9137 35.1437 39.2891 37.6824 37.8704 39.785V39.785C35.7806 41.1789 33.2551 41.7648 30.7651 41.4334H26.0472C25.6767 41.4396 25.3095 41.3634 24.9721 41.2103C24.6347 41.0573 24.3355 40.8311 24.0962 40.5483C23.8568 40.2654 23.6833 39.9329 23.5882 39.5748C23.4931 39.2167 23.4787 38.842 23.5461 38.4776C23.6544 37.8505 23.983 37.2826 24.4728 36.8762C24.9626 36.4697 25.5814 36.2515 26.2177 36.2608H29.9125C30.5069 36.2683 31.097 36.1577 31.6484 35.9354C32.1998 35.7131 32.7015 35.3836 33.1246 34.9658C33.5476 34.5481 33.8834 34.0505 34.1127 33.502C34.3419 32.9534 34.4599 32.3648 34.4598 31.7703V30.0082C34.4432 29.3809 34.6433 28.767 35.0264 28.2701C35.4094 27.7731 35.9521 27.4233 36.563 27.2798C36.9363 27.2233 37.3173 27.2467 37.6809 27.3482C38.0445 27.4498 38.3825 27.6273 38.6725 27.869C38.9625 28.1107 39.198 28.4111 39.3635 28.7504C39.529 29.0897 39.6206 29.4603 39.6325 29.8376V29.8376Z" fill="#C8DA6C"/>
</svg>
