<svg width="28" height="29" viewBox="0 0 28 29" fill="none" xmlns="http://www.w3.org/2000/svg">
<path d="M27.9624 14.539C27.8122 15.2842 27.4032 15.9523 26.8079 16.4251C26.2127 16.898 25.4693 17.145 24.7095 17.1227H17.1141V24.7181C17.1364 25.478 16.8893 26.2213 16.4165 26.8166C15.9437 27.4118 15.2756 27.8208 14.5304 27.971C14.0796 28.0488 13.6173 28.0263 13.1762 27.9051C12.7351 27.784 12.3261 27.567 11.9784 27.2698C11.6307 26.9726 11.3527 26.6024 11.1643 26.1856C10.9759 25.7688 10.8817 25.3155 10.8884 24.8582V17.076H3.23073C2.5274 17.1045 1.83517 16.8938 1.267 16.4783C0.698825 16.0628 0.288261 15.467 0.102304 14.7881C-0.101395 13.9915 0.0183226 13.1467 0.435321 12.4381C0.852319 11.7295 1.53273 11.2146 2.328 11.0059C2.328 11.7077 2.60677 12.3807 3.10297 12.8769C3.59918 13.3731 4.27218 13.6519 4.97393 13.6519H9.47201C10.5577 13.6519 11.5988 13.2206 12.3665 12.4529C13.1342 11.6853 13.5654 10.6441 13.5654 9.55845V6.44559C13.5695 6.0996 13.5049 5.75623 13.3754 5.43539C13.2458 5.11454 13.0539 4.8226 12.8107 4.57649C12.5674 4.33038 12.2778 4.13498 11.9585 4.00163C11.6392 3.86829 11.2966 3.79963 10.9506 3.79966V3.3016C10.9255 2.55042 11.1638 1.81409 11.6242 1.22004C12.0847 0.626001 12.7383 0.211635 13.472 0.0486637C13.9228 -0.0291487 14.3852 -0.00665893 14.8263 0.114533C15.2674 0.235724 15.6763 0.452639 16.024 0.749844C16.3718 1.04705 16.6497 1.41724 16.8381 1.83407C17.0265 2.2509 17.1207 2.70414 17.1141 3.16152V10.9437H24.8962C25.3451 10.945 25.7883 11.0433 26.1955 11.232C26.6028 11.4206 26.9644 11.6951 27.2557 12.0366C27.5469 12.3781 27.7609 12.7786 27.8828 13.2105C28.0048 13.6424 28.032 14.0956 27.9624 14.539Z" fill="#A792DF"/>
<path d="M10.8572 8.1726V8.93525C10.9342 9.62549 10.7632 10.3206 10.3747 10.8963C9.80253 11.278 9.111 11.4384 8.4292 11.3477H7.13736C7.03592 11.3494 6.93537 11.3285 6.84299 11.2866C6.7506 11.2447 6.66867 11.1828 6.60314 11.1053C6.53761 11.0279 6.4901 10.9369 6.46405 10.8388C6.43801 10.7407 6.43407 10.6381 6.45253 10.5384C6.48218 10.3666 6.57215 10.2111 6.70626 10.0999C6.84037 9.98857 7.00981 9.92882 7.18406 9.93136H8.19573C8.35851 9.93342 8.52007 9.90314 8.67106 9.84227C8.82204 9.7814 8.95943 9.69116 9.07526 9.57678C9.19109 9.46239 9.28305 9.32615 9.34582 9.17594C9.40858 9.02574 9.44089 8.86457 9.44088 8.70178V8.21929C9.43632 8.04753 9.4911 7.87945 9.596 7.74337C9.7009 7.60728 9.8495 7.51152 10.0168 7.4722C10.119 7.45676 10.2233 7.46315 10.3229 7.49096C10.4224 7.51877 10.515 7.56736 10.5944 7.63354C10.6738 7.69972 10.7383 7.78198 10.7836 7.87489C10.8289 7.96781 10.854 8.06927 10.8572 8.1726Z" fill="#A792DF"/>
</svg>
