<svg width="26" height="30" viewBox="0 0 26 30" fill="none" xmlns="http://www.w3.org/2000/svg">
<path d="M23.6529 8.37955V22.1539C23.6529 22.6548 23.4556 23.1352 23.1045 23.4894C22.7533 23.8436 22.2771 24.0426 21.7805 24.0426H15.1072C14.5023 24.0426 13.9222 23.8002 13.4945 23.3688C13.0667 22.9374 12.8265 22.3522 12.8265 21.7421C12.8228 21.1331 12.5813 20.5502 12.1544 20.1196C11.7274 19.6889 11.1495 19.4454 10.5457 19.4417H2V8.54995C2 7.55593 2.09855 7.12991 2.81656 7.85413L6.61779 13.5343C6.6993 13.6259 6.80185 13.696 6.91644 13.7383C7.03103 13.7806 7.15417 13.794 7.27507 13.7772C7.39597 13.7604 7.51093 13.7139 7.60988 13.6418C7.70883 13.5698 7.78874 13.4743 7.84263 13.3639L11.855 3.18221C12.2774 1.59176 13.3755 1.62016 13.7697 3.18221L17.6836 13.3639C17.7381 13.4761 17.8194 13.5729 17.9202 13.6455C18.0211 13.7181 18.1382 13.7642 18.2612 13.7797C18.3841 13.7952 18.5089 13.7796 18.6244 13.7343C18.7399 13.689 18.8423 13.6153 18.9225 13.5201L22.8082 7.68373C23.5403 6.91691 23.6529 7.37132 23.6529 8.37955Z" fill="#A792DF" stroke="#A792DF" stroke-width="3" stroke-linecap="round" stroke-linejoin="round"/>
<path d="M19.2464 24.0427H4.4357C4.16473 24.0546 3.89929 24.1239 3.65669 24.2463C3.4141 24.3686 3.19982 24.5412 3.02784 24.7527V24.8237C2.80908 25.0965 2.67059 25.4256 2.62811 25.7738C2.58563 26.122 2.64087 26.4752 2.78755 26.7933C2.93422 27.1113 3.16644 27.3815 3.45781 27.5731C3.74917 27.7646 4.08798 27.8699 4.4357 27.8768H21.33" stroke="#A792DF" stroke-width="3" stroke-linecap="round" stroke-linejoin="round"/>
</svg>
