<svg width="29" height="25" viewBox="0 0 29 25" fill="none" xmlns="http://www.w3.org/2000/svg">
<path d="M17.8539 15.3977C19.3504 15.1357 21.2626 16.9282 20.362 18.4311L19.6276 19.6168C18.9153 20.6818 18.078 21.6585 17.1334 22.5261C16.6768 23.0007 16.1283 23.3785 15.521 23.6365C14.9138 23.8946 14.2603 24.0276 13.5999 24.0276C12.9396 24.0276 12.2861 23.8946 11.6788 23.6365C11.0716 23.3785 10.5231 23.0007 10.0665 22.5261L1.60011 14.5429C0.893426 13.881 -1.17121 11.868 0.893426 9.86873C2.95806 7.86947 5.11969 9.86872 5.54925 10.2824L6.21436 10.8063L6.33907 10.9304L11.4799 15.8389C11.9219 16.3117 12.4983 16.6389 13.1322 16.7768C13.7661 16.9148 14.4272 16.857 15.0272 16.6111C15.9092 16.1143 16.8372 15.7034 17.7985 15.3839L17.8539 15.3977Z" fill="#A792DF"/>
<path d="M28.1078 5.18084C27.4011 6.33903 26.1956 8.60026 23.9508 12.1438C23.6875 12.5712 23.2857 13.3985 23.0085 13.8259C22.7314 14.2533 22.2326 14.2396 22.0524 14.0189L21.803 13.6467C21.4017 13.0772 20.8248 12.6533 20.1597 12.4393C19.4946 12.2254 18.7775 12.2329 18.1172 12.4609L16.7315 12.6677C16.6502 12.6691 16.5702 12.6482 16.5 12.6074C16.4299 12.5666 16.3724 12.5074 16.3338 12.4362C16.2952 12.3651 16.2769 12.2847 16.2811 12.204C16.2853 12.1232 16.3116 12.0452 16.3574 11.9783C17.6737 9.99285 21.1795 4.73963 22.8838 2.32673C23.4519 1.5546 24.9207 -0.982392 27.4981 0.410195C30.0754 1.80278 28.6759 4.33977 28.1078 5.18084Z" fill="#A792DF"/>
</svg>
