<svg width="97" height="114" viewBox="0 0 97 114" fill="none" xmlns="http://www.w3.org/2000/svg">
<path d="M91.7227 30.5509V85.7191C91.7227 87.7252 90.9326 89.6492 89.5261 91.0678C88.1197 92.4864 86.2122 93.2834 84.2233 93.2834H57.496C55.0733 93.2834 52.7499 92.3126 51.0368 90.5847C49.3237 88.8568 48.3613 86.5133 48.3613 84.0697V84.0697C48.3465 81.6307 47.3794 79.2958 45.6695 77.5712C43.9596 75.8465 41.6448 74.871 39.2267 74.8561H5V31.2334C5 27.2522 5.39471 25.546 8.27043 28.4466L23.4948 51.1963C23.8213 51.5632 24.232 51.8438 24.691 52.0134C25.1499 52.183 25.6431 52.2365 26.1273 52.1691C26.6115 52.1017 27.072 51.9156 27.4683 51.627C27.8646 51.3384 28.1847 50.9562 28.4005 50.5138L44.4707 9.73489C46.1623 3.36496 50.5604 3.47871 52.1392 9.73489L67.8147 50.5138C68.0329 50.9633 68.3587 51.351 68.7626 51.6418C69.1664 51.9325 69.6357 52.1173 70.1281 52.1794C70.6205 52.2415 71.1204 52.1789 71.5828 51.9973C72.0453 51.8158 72.4556 51.5209 72.7768 51.1394L88.3395 27.7641C91.2716 24.6929 91.7227 26.5128 91.7227 30.5509Z" fill="white" stroke="white" stroke-width="9" stroke-linecap="round" stroke-linejoin="round"/>
<path d="M74.0741 93.2833H14.7553C13.67 93.3308 12.6069 93.6086 11.6353 94.0986C10.6637 94.5886 9.80547 95.2798 9.11665 96.127V96.4114C8.24051 97.5037 7.68583 98.822 7.51569 100.217C7.34556 101.611 7.56679 103.026 8.15424 104.3C8.74169 105.574 9.67178 106.656 10.8387 107.423C12.0057 108.19 13.3626 108.612 14.7553 108.639H82.4193" stroke="white" stroke-width="9" stroke-linecap="round" stroke-linejoin="round"/>
</svg>
