<svg width="81" height="80" viewBox="0 0 81 80" fill="none" xmlns="http://www.w3.org/2000/svg">
<path d="M60.2105 5.02132H66.4336C67.7226 4.93156 69.0155 5.12597 70.2209 5.59078C71.4263 6.0556 72.5147 6.77946 73.4091 7.71113C74.3035 8.64281 74.982 9.75952 75.3966 10.9822C75.8112 12.2049 75.9517 13.5037 75.8083 14.7867V68.7955C75.8964 69.8653 75.6498 70.9359 75.1027 71.8596C74.5555 72.7833 73.7348 73.5145 72.7538 73.952C71.7729 74.3896 70.6802 74.512 69.6266 74.3023C68.5731 74.0926 67.6107 73.5611 66.8724 72.7814L52.0326 56.0805C51.5795 55.5437 51.0145 55.1122 50.3771 54.8162C49.7398 54.5202 49.0454 54.3668 48.3425 54.3668C47.6397 54.3668 46.9453 54.5202 46.308 54.8162C45.6706 55.1122 45.1056 55.5437 44.6525 56.0805L29.5334 73.3793C28.7951 74.159 27.8328 74.6905 26.7792 74.9001C25.7257 75.1098 24.6329 74.9875 23.652 74.5499C22.6711 74.1123 21.8503 73.3812 21.3032 72.4575C20.756 71.5338 20.5095 70.4631 20.5975 69.3934V28.4583" stroke="white" stroke-width="10" stroke-linecap="round" stroke-linejoin="round"/>
<path d="M5 31.2882C5 12.993 9.5876 5.02124 24.9461 5.02124H48.8814H60.3304" stroke="white" stroke-width="10" stroke-miterlimit="10" stroke-linecap="round"/>
</svg>
