<svg width="28" height="28" viewBox="0 0 28 28" fill="none" xmlns="http://www.w3.org/2000/svg">
<path d="M26.105 5.41378V23.7182C26.135 24.0824 26.051 24.4468 25.8648 24.7613C25.6785 25.0757 25.3991 25.3246 25.0652 25.4736C24.7312 25.6225 24.3592 25.6642 24.0006 25.5928C23.6419 25.5214 23.3143 25.3405 23.063 25.0751L18.0112 19.3897C17.8569 19.207 17.6646 19.0601 17.4476 18.9593C17.2306 18.8585 16.9943 18.8063 16.755 18.8063C16.5157 18.8063 16.2794 18.8585 16.0624 18.9593C15.8454 19.0601 15.6531 19.207 15.4988 19.3897L10.3519 25.2786C10.1006 25.5441 9.773 25.725 9.41434 25.7964C9.05569 25.8677 8.6837 25.8261 8.34977 25.6771C8.01583 25.5282 7.73643 25.2793 7.55017 24.9648C7.36391 24.6504 7.27997 24.2859 7.30996 23.9217V9.9865C7.30996 8.62961 7.82601 7.72049 8.93959 7.43555C10.5149 7.08276 17.305 7.5848 18.921 6.72996C21.2025 5.54947 20.7951 3.36488 20.7951 2.008H22.9136C23.3601 1.97535 23.8083 2.04294 24.2253 2.2058C24.6423 2.36866 25.0175 2.62267 25.3235 2.94922C25.6295 3.27578 25.8585 3.66659 25.9937 4.09304C26.1289 4.51948 26.1669 4.97075 26.105 5.41378Z" fill="white" stroke="white" stroke-width="3" stroke-linecap="round" stroke-linejoin="round"/>
<path d="M2 10.9532C2 4.72513 3.56172 2.01135 8.7901 2.01135H16.9382H20.8357" stroke="white" stroke-width="3" stroke-miterlimit="10" stroke-linecap="round"/>
</svg>
